<svg version="1.1" xmlns="http://www.w3.org/2000/svg" xmlns:xlink="http://www.w3.org/1999/xlink" x="0px" y="0px"
	 viewBox="0 0 100 100" style="enable-background:new 0 0 100 100;" xml:space="preserve">
<g id="Vrstva_87">
	<g>
		<g>
			<g>
				<path d="M10.6,76.475c-0.828,0-1.5-0.672-1.5-1.5c0-6.313,4.728-9.49,8.283-11.33c3.407-1.764,5.63-2.348,7.59-2.863
					c2.104-0.554,3.766-0.99,6.409-2.871c0.675-0.48,1.611-0.322,2.092,0.354c0.479,0.675,0.322,1.611-0.354,2.092
					c-3.089,2.197-5.176,2.746-7.384,3.327c-1.81,0.476-3.862,1.016-6.975,2.626c-4.607,2.385-6.662,5.058-6.662,8.666
					C12.1,75.803,11.428,76.475,10.6,76.475z"/>
			</g>
			<g>
				<path d="M73.392,76.475c-0.828,0-1.5-0.672-1.5-1.5c0-3.608-2.055-6.281-6.662-8.666c-3.112-1.61-5.164-2.15-6.975-2.626
					c-2.208-0.581-4.295-1.13-7.384-3.327c-0.676-0.48-0.833-1.417-0.354-2.092c0.481-0.675,1.417-0.834,2.092-0.354
					c2.644,1.881,4.306,2.317,6.409,2.871c1.96,0.516,4.183,1.1,7.59,2.863c3.556,1.84,8.283,5.017,8.283,11.33
					C74.892,75.803,74.22,76.475,73.392,76.475z"/>
			</g>
			<g>
				<path d="M41.478,56.72c-6.126,0-8.452-4.688-10.505-8.825c-0.288-0.58-0.579-1.166-0.882-1.748
					c-0.159-0.11-0.48-0.284-0.705-0.405c-0.823-0.445-1.676-0.905-2.008-1.743c-0.844-2.126-1.303-5.193-1.383-7.29
					c-0.036-1.063,0.747-1.501,2.046-2.226c0.144-0.08,0.334-0.187,0.508-0.287c-0.011-1.691-0.058-2.921-0.093-3.849
					c-0.048-1.246-0.076-1.999,0.031-2.675c0.897-5.654,5.268-8.521,12.99-8.521c0.828,0,1.5,0.672,1.5,1.5s-0.672,1.5-1.5,1.5
					c-8.136,0-9.619,3.419-10.027,5.991c-0.061,0.386-0.035,1.064,0.004,2.092c0.041,1.081,0.097,2.561,0.097,4.701
					c-0.004,1.026-0.773,1.455-2.048,2.167c-0.132,0.074-0.303,0.169-0.464,0.262c0.134,1.692,0.503,3.84,1.048,5.321
					c0.178,0.121,0.511,0.302,0.725,0.417c0.767,0.414,1.491,0.806,1.854,1.497c0.344,0.652,0.671,1.312,0.994,1.963
					c2.202,4.438,3.758,7.158,7.817,7.158c0.828,0,1.5,0.672,1.5,1.5S42.306,56.72,41.478,56.72z"/>
			</g>
			<g>
				<path d="M42.066,56.72c-0.828,0-1.5-0.672-1.5-1.5s0.672-1.5,1.5-1.5c4.059,0,5.614-2.719,7.816-7.154
					c0.324-0.653,0.651-1.313,0.996-1.967c0.363-0.691,1.087-1.083,1.854-1.497c0.214-0.115,0.547-0.296,0.725-0.417
					c0.546-1.482,0.915-3.628,1.049-5.321c-0.161-0.093-0.332-0.188-0.464-0.262c-1.275-0.712-2.043-1.142-2.047-2.162
					c0-2.141,0.056-3.62,0.097-4.7c0.039-1.03,0.064-1.71,0.003-2.097c-0.408-2.573-1.892-5.992-10.027-5.992
					c-0.828,0-1.5-0.672-1.5-1.5s0.672-1.5,1.5-1.5c7.723,0,12.094,2.867,12.99,8.521c0.107,0.677,0.079,1.432,0.032,2.682
					c-0.035,0.927-0.081,2.152-0.093,3.843c0.174,0.101,0.363,0.206,0.507,0.286c1.301,0.727,2.086,1.165,2.046,2.226
					c-0.079,2.096-0.538,5.162-1.383,7.291c-0.333,0.838-1.185,1.298-2.008,1.743c-0.225,0.121-0.546,0.295-0.705,0.405
					c-0.304,0.583-0.596,1.171-0.884,1.752C50.517,52.033,48.191,56.72,42.066,56.72z"/>
			</g>
			<g>
				<path d="M41.635,87.85c-12.867,0-23.952-3.974-32.056-11.492c-0.607-0.563-0.643-1.513-0.079-2.12
					c0.564-0.607,1.513-0.642,2.12-0.079c7.538,6.994,17.917,10.691,30.015,10.691c13.192,0,23.529-3.534,30.722-10.505
					c0.594-0.576,1.545-0.564,2.121,0.033c0.576,0.595,0.562,1.545-0.033,2.121C66.673,84.03,55.634,87.85,41.635,87.85z"/>
			</g>
		</g>
		<g>
			<g>
				<path d="M89.393,65.341c-0.828,0-1.5-0.672-1.5-1.5c0-3.287-1.879-5.725-6.094-7.905c-2.865-1.482-4.754-1.979-6.421-2.418
					c-2.05-0.539-3.987-1.049-6.858-3.091c-0.676-0.48-0.833-1.417-0.354-2.092c0.48-0.675,1.417-0.833,2.092-0.354
					c2.426,1.726,3.952,2.127,5.884,2.635c1.817,0.479,3.877,1.021,7.036,2.655c3.311,1.713,7.715,4.673,7.715,10.569
					C90.893,64.669,90.221,65.341,89.393,65.341z"/>
			</g>
			<g>
				<path d="M53.802,16.121c-0.595,0-1.157-0.354-1.393-0.939c-0.31-0.768,0.062-1.642,0.831-1.952
					c1.803-0.726,3.984-1.079,6.667-1.079c0.828,0,1.5,0.672,1.5,1.5s-0.672,1.5-1.5,1.5c-2.26,0-4.126,0.29-5.546,0.862
					C54.178,16.087,53.988,16.121,53.802,16.121z"/>
			</g>
			<g>
				<path d="M67.467,42.471c-0.257,0-0.516-0.065-0.753-0.203c-0.717-0.417-0.959-1.335-0.543-2.051
					c0.481-0.827,0.927-1.725,1.398-2.676c0.3-0.604,0.603-1.214,0.921-1.818c0.351-0.669,1.035-1.039,1.759-1.43
					c0.185-0.1,0.466-0.252,0.63-0.359c0.486-1.337,0.817-3.248,0.943-4.779c-0.13-0.074-0.262-0.148-0.366-0.206
					c-1.171-0.654-1.944-1.086-1.948-2.095c0-1.983,0.052-3.352,0.09-4.351c0.035-0.943,0.059-1.567,0.004-1.913
					c-0.37-2.335-1.722-5.439-9.151-5.439c-0.828,0-1.5-0.672-1.5-1.5s0.672-1.5,1.5-1.5c7.2,0,11.276,2.682,12.114,7.969
					c0.102,0.636,0.074,1.337,0.03,2.497c-0.031,0.844-0.073,1.956-0.084,3.482c0.142,0.082,0.292,0.165,0.408,0.23
					c1.197,0.668,1.988,1.109,1.949,2.159c-0.074,1.946-0.5,4.796-1.285,6.775c-0.323,0.812-1.129,1.247-1.907,1.668
					c-0.194,0.106-0.47,0.254-0.617,0.353c-0.275,0.53-0.54,1.062-0.802,1.591c-0.473,0.952-0.961,1.937-1.492,2.85
					C68.486,42.204,67.984,42.471,67.467,42.471z"/>
			</g>
			<g>
				<path d="M84.037,69.941c-0.501,0-0.99-0.251-1.274-0.707c-0.438-0.704-0.223-1.629,0.48-2.066
					c1.844-1.147,3.563-2.49,5.113-3.991c0.596-0.576,1.544-0.562,2.121,0.033c0.576,0.595,0.562,1.545-0.033,2.121
					c-1.703,1.649-3.592,3.125-5.615,4.384C84.582,69.868,84.309,69.941,84.037,69.941z"/>
			</g>
		</g>
	</g>
</g>
<script  type="text/javascript">
    <![CDATA[
         var c=window.location.search.split('color=')[1]; c=parseInt(c,16); if(!isNaN(c)){c=c.toString(16);var p=document.getElementsByTagName('path');for(var i=0,l=p.length;i<l;i++){var s=p[i].style;s.fill='#'+c;} var p2=document.getElementsByTagName('polygon');for(var i=0,l=p2.length;i<l;i++){var s=p2[i].style;s.fill='#'+c;} var p3=document.getElementsByTagName('circle');for(var i=0,l=p3.length;i<l;i++){var s=p3[i].style;s.fill='#'+c;} }
        ]]>
</script>
</svg>
