<svg version="1.1" xmlns="http://www.w3.org/2000/svg" xmlns:xlink="http://www.w3.org/1999/xlink" x="0px" y="0px"
	 viewBox="0 0 100 100" style="enable-background:new 0 0 100 100;" xml:space="preserve">
<g id="Vrstva_63">
	<g>
		<g>
			<g>
				<g>
					<path d="M49.875,85.947c-19.752,0-35.822-16.069-35.822-35.822s16.07-35.822,35.822-35.822
						c19.752,0,35.822,16.069,35.822,35.822S69.627,85.947,49.875,85.947z M49.875,17.303c-18.098,0-32.822,14.724-32.822,32.822
						s14.724,32.822,32.822,32.822c18.098,0,32.822-14.724,32.822-32.822S67.973,17.303,49.875,17.303z"/>
				</g>
			</g>
		</g>
		<g>
			<g>
				<g>
					<path d="M49.875,74.197c-13.273,0-24.072-10.799-24.072-24.072s10.799-24.072,24.072-24.072
						c13.273,0,24.072,10.799,24.072,24.072S63.148,74.197,49.875,74.197z M49.875,29.053c-11.619,0-21.072,9.453-21.072,21.072
						s9.453,21.072,21.072,21.072c11.619,0,21.072-9.453,21.072-21.072S61.494,29.053,49.875,29.053z"/>
				</g>
			</g>
		</g>
		<g>
			<path d="M50,96c-0.829,0-1.5-0.672-1.5-1.5v-15c0-0.828,0.671-1.5,1.5-1.5c0.829,0,1.5,0.672,1.5,1.5v15
				C51.5,95.328,50.829,96,50,96z"/>
		</g>
		<g>
			<path d="M50,22c-0.829,0-1.5-0.672-1.5-1.5v-15C48.5,4.672,49.171,4,50,4c0.829,0,1.5,0.672,1.5,1.5v15
				C51.5,21.328,50.829,22,50,22z"/>
		</g>
		<g>
			<path d="M20.5,51.5h-15C4.671,51.5,4,50.828,4,50s0.671-1.5,1.5-1.5h15c0.829,0,1.5,0.672,1.5,1.5S21.329,51.5,20.5,51.5z"/>
		</g>
		<g>
			<path d="M94.5,51.5h-15c-0.829,0-1.5-0.672-1.5-1.5s0.671-1.5,1.5-1.5h15c0.829,0,1.5,0.672,1.5,1.5S95.329,51.5,94.5,51.5z"/>
		</g>
		<g>
			<path d="M49.875,53.287c-1.744,0-3.162-1.419-3.162-3.162s1.418-3.162,3.162-3.162c1.744,0,3.162,1.419,3.162,3.162
				S51.619,53.287,49.875,53.287z M49.875,49.963c-0.089,0-0.162,0.072-0.162,0.162c0,0.18,0.324,0.18,0.324,0
				C50.037,50.035,49.964,49.963,49.875,49.963z"/>
		</g>
	</g>
</g>
<script  type="text/javascript">
    <![CDATA[
         var c=window.location.search.split('color=')[1]; c=parseInt(c,16); if(!isNaN(c)){c=c.toString(16);var p=document.getElementsByTagName('path');for(var i=0,l=p.length;i<l;i++){var s=p[i].style;s.fill='#'+c;} var p2=document.getElementsByTagName('polygon');for(var i=0,l=p2.length;i<l;i++){var s=p2[i].style;s.fill='#'+c;} var p3=document.getElementsByTagName('circle');for(var i=0,l=p3.length;i<l;i++){var s=p3[i].style;s.fill='#'+c;} }
        ]]>
</script>
</svg>
