<svg version="1.1" xmlns="http://www.w3.org/2000/svg" xmlns:xlink="http://www.w3.org/1999/xlink" x="0px" y="0px"
	 viewBox="0 0 100 100" style="enable-background:new 0 0 100 100;" xml:space="preserve">
<g id="Vrstva_230">
	<g>
		<g>
			<path style="fill:#020000;" d="M41.16,88.078h-20.5c-0.828,0-1.5-0.672-1.5-1.5v-33.5c0-0.828,0.672-1.5,1.5-1.5
				c0.828,0,1.5,0.672,1.5,1.5v32h19c0.828,0,1.5,0.672,1.5,1.5C42.66,87.406,41.988,88.078,41.16,88.078z"/>
		</g>
		<g>
			<path style="fill:#020000;" d="M79.66,88.078h-19.5c-0.828,0-1.5-0.672-1.5-1.5c0-0.828,0.672-1.5,1.5-1.5h18v-32
				c0-0.828,0.672-1.5,1.5-1.5c0.828,0,1.5,0.672,1.5,1.5v33.5C81.16,87.406,80.488,88.078,79.66,88.078z"/>
		</g>
		<g>
			<path style="fill:#020000;" d="M59.66,87.578c-0.828,0-1.5-0.672-1.5-1.5v-17h-15v17c0,0.828-0.672,1.5-1.5,1.5
				c-0.828,0-1.5-0.672-1.5-1.5v-18.5c0-0.828,0.672-1.5,1.5-1.5h18c0.828,0,1.5,0.672,1.5,1.5v18.5
				C61.16,86.906,60.488,87.578,59.66,87.578z"/>
		</g>
		<g>
			<path style="fill:#020000;" d="M50.66,54.966c-5.452,0-9.888-4.436-9.888-9.888c0-5.452,4.436-9.888,9.888-9.888
				c5.452,0,9.888,4.436,9.888,9.888C60.547,50.53,56.112,54.966,50.66,54.966z M50.66,38.19c-3.798,0-6.888,3.09-6.888,6.888
				c0,3.798,3.09,6.888,6.888,6.888c3.798,0,6.888-3.09,6.888-6.888C57.547,41.28,54.458,38.19,50.66,38.19z"/>
		</g>
		<g>
			<path style="fill:#020000;" d="M12.327,52.578c-0.384,0-0.768-0.146-1.061-0.439c-0.586-0.586-0.586-1.535,0-2.121l37.673-37.674
				c0.562-0.562,1.559-0.562,2.121,0l37.674,37.674c0.586,0.586,0.586,1.535,0,2.121c-0.586,0.586-1.535,0.586-2.121,0
				L49.999,15.525L13.387,52.139C13.094,52.432,12.71,52.578,12.327,52.578z"/>
		</g>
	</g>
</g>
<script  type="text/javascript">
    <![CDATA[
         var c=window.location.search.split('color=')[1]; c=parseInt(c,16); if(!isNaN(c)){c=c.toString(16);var p=document.getElementsByTagName('path');for(var i=0,l=p.length;i<l;i++){var s=p[i].style;s.fill='#'+c;} var p2=document.getElementsByTagName('polygon');for(var i=0,l=p2.length;i<l;i++){var s=p2[i].style;s.fill='#'+c;} var p3=document.getElementsByTagName('circle');for(var i=0,l=p3.length;i<l;i++){var s=p3[i].style;s.fill='#'+c;} }
        ]]>
</script>
</svg>
